<svg xmlns="http://www.w3.org/2000/svg" viewBox="0 0 24 24"><defs><style>.a{fill:none;}.b{fill:#7b7e83;}</style></defs><g transform="translate(-446 -362)"><g transform="translate(-18 4)"><g transform="translate(-164 130)"><g transform="translate(29)"><g transform="translate(93)"><g transform="translate(60 -26)"><g transform="translate(24 26)"><rect class="a" width="24" height="24" transform="translate(422 228)"/></g></g></g></g></g><g transform="translate(467.999 362.001)"><path class="b" d="M488-12571a1.073,1.073,0,0,1-1-1v-14a1.076,1.076,0,0,1,1-1h14a1.079,1.079,0,0,1,1,1v14a1.076,1.076,0,0,1-1,1Zm1-2h12v-12h-6v12Z" transform="translate(-487 12587)"/><path class="b" d="M10,10.8a.764.764,0,0,1-.5-.2.785.785,0,0,1,0-1.1L10.9,8,9.5,6.5a.778.778,0,0,1,1.1-1.1l2,2a.785.785,0,0,1,0,1.1l-2,2A.864.864,0,0,1,10,10.8Z"/></g></g></g></svg>