<svg xmlns="http://www.w3.org/2000/svg" xmlns:xlink="http://www.w3.org/1999/xlink" width="14" height="14" viewBox="0 0 14 14"><defs><path id="jh04a" d="M686.42 120.5c.4-.4 1-.4 1.4 0l2.8 2.8c.4.4.4 1 0 1.4-.4.4-1 .4-1.4 0l-2.8-2.8c-.4-.3-.4-1 0-1.4z"/><path id="jh04b" d="M682.92 111c-1.5 0-3.1.6-4.2 1.8a6.1 6.1 0 0 0 0 8.5c1.1 1.1 2.7 1.7 4.2 1.7s3.1-.6 4.2-1.8a6.1 6.1 0 0 0 0-8.5 6.07 6.07 0 0 0-4.2-1.7zm0 2c1.1 0 2.1.4 2.8 1.2 1.6 1.6 1.6 4.1 0 5.7-.7.7-1.7 1.1-2.8 1.1-1.1 0-2.1-.4-2.8-1.2a3.98 3.98 0 0 1 0-5.7c.7-.7 1.7-1.1 2.8-1.1"/></defs><g><g transform="translate(-677 -111)"><g><g><use fill="#7b7e83" xlink:href="#jh04a"/></g></g><g><g><use fill="#7b7e83" xlink:href="#jh04b"/></g></g></g></g></svg>