<svg xmlns="http://www.w3.org/2000/svg" xmlns:xlink="http://www.w3.org/1999/xlink" width="12" height="12" viewBox="0 0 12 12"><defs><path id="q8mda" d="M1004.29 372.7l-4.3-4.29-4.28 4.29c-.2.2-.4.3-.7.3-.3 0-.5-.1-.7-.3-.41-.4-.41-1.01 0-1.41l4.28-4.29-4.29-4.29a.97.97 0 0 1 0-1.4c.4-.41 1.01-.41 1.41 0l4.29 4.28 4.29-4.29a.97.97 0 0 1 1.4 0c.41.4.41 1.01 0 1.41l-4.28 4.29 4.29 4.29c.4.4.4 1 0 1.4-.2.21-.4.31-.7.31-.31 0-.51-.1-.71-.3z"/></defs><g><g transform="translate(-994 -361)"><use fill="#28282e" fill-opacity=".65" xlink:href="#q8mda"/></g></g></svg>