<svg xmlns="http://www.w3.org/2000/svg" xmlns:xlink="http://www.w3.org/1999/xlink" width="360" height="360" viewBox="0 0 360 360"><defs><path id="p0vba" d="M720.04 390.24c-.07-1 .86-2.07 1.85-2.14l139.66-9.76c1-.07 2.07.85 2.14 1.85l12.27 175.57c.07 1-.85 2.07-1.85 2.14l-139.66 9.76c-1 .07-2.07-.85-2.14-1.85z"/><path id="p0vbb" d="M833.94 428.96a2.15 2.15 0 0 1 2.45-1.42l112.05 30.03a2.15 2.15 0 0 1 1.41 2.45l-37.79 141.02a2.15 2.15 0 0 1-2.45 1.42l-112.04-30.03a2.15 2.15 0 0 1-1.42-2.45z"/><path id="p0vbc" d="M756.51 473.56c.97-.26 2.2.45 2.45 1.41l22.26 83.07c.26.97-.45 2.2-1.41 2.45l-104.32 27.95c-.97.26-2.2-.45-2.45-1.41l-22.26-83.07c-.26-.97.45-2.2 1.41-2.45z"/><path id="p0vbd" d="M799.8 518.74c1-.09 2.08.82 2.17 1.82l5.93 67.74c.08 1-.83 2.08-1.82 2.17l-31.88 2.79c-1 .08-2.08-.82-2.17-1.82l-5.92-67.74c-.1-1 .82-2.08 1.81-2.17z"/><path id="p0vbe" d="M832.77 516.37a2.15 2.15 0 0 1 1.42 2.45l-17.6 65.68a2.15 2.15 0 0 1-2.45 1.41l-30.91-8.28a2.15 2.15 0 0 1-1.42-2.45l17.6-65.68a2.15 2.15 0 0 1 2.45-1.41z"/><path id="p0vbf" d="M800 311c99.41 0 180 80.59 180 180s-80.59 180-180 180-180-80.59-180-180 80.59-180 180-180z"/><path id="p0vbh" d="M847.36 433.46c.5-.03 1.03.43 1.07.93l.35 4.99c.03.5-.43 1.03-.93 1.06l-81.8 5.72c-.5.04-1.03-.43-1.07-.92l-.35-5c-.03-.5.43-1.02.93-1.06z"/><path id="p0vbi" d="M849.39 462.39c.5-.04 1.03.43 1.06.93l.35 4.99c.04.5-.43 1.03-.93 1.06l-81.8 5.72c-.5.04-1.03-.43-1.06-.93l-.35-4.98c-.04-.5.43-1.04.93-1.07z"/><path id="p0vbj" d="M853.43 520.25c.5-.04 1.03.43 1.07.93l.35 4.98c.03.5-.43 1.04-.93 1.07l-81.8 5.72c-.5.04-1.03-.43-1.07-.93l-.35-4.98c-.03-.5.43-1.04.93-1.07z"/><path id="p0vbk" d="M848.06 443.44c.5-.04 1.03.42 1.07.92l.35 5c.03.49-.43 1.02-.93 1.06l-81.8 5.72c-.5.03-1.03-.43-1.07-.93l-.35-4.99c-.03-.5.43-1.03.93-1.06z"/><path id="p0vbl" d="M850.08 472.37c.5-.04 1.04.42 1.07.92l.35 5c.03.49-.43 1.02-.93 1.06l-81.8 5.72c-.5.03-1.03-.43-1.07-.93l-.35-4.99c-.03-.5.43-1.03.93-1.06z"/><path id="p0vbm" d="M854.13 530.22c.5-.03 1.03.43 1.07.93l.34 4.99c.04.5-.42 1.03-.92 1.07l-81.8 5.72c-.5.03-1.04-.43-1.07-.93l-.35-4.99c-.03-.5.43-1.03.93-1.07z"/><path id="p0vbn" d="M756.28 446.77l-5.64 6.48c-.22.26-.46.4-.82.42a1.1 1.1 0 0 1-.87-.3l-3.9-3.38a1.17 1.17 0 0 1-.11-1.7 1.17 1.17 0 0 1 1.7-.12l2.98 2.6 4.84-5.58a1.17 1.17 0 0 1 1.7-.12c.52.45.57 1.18.12 1.7zm1.09-7.02l-14.54 1.02a1.3 1.3 0 0 0-1.12 1.3l1.01 14.53c.04.6.7 1.17 1.3 1.13l14.53-1.02a1.3 1.3 0 0 0 1.13-1.3l-1.02-14.53a1.3 1.3 0 0 0-1.3-1.13z"/><path id="p0vbo" d="M758.3 475.7l-5.63 6.48c-.23.26-.46.4-.83.42a1.1 1.1 0 0 1-.87-.3l-3.89-3.38a1.17 1.17 0 0 1-.12-1.7 1.17 1.17 0 0 1 1.7-.12l2.98 2.6 4.84-5.58a1.17 1.17 0 0 1 1.7-.12c.52.45.57 1.18.12 1.7zm1.1-7.02l-14.54 1.02a1.3 1.3 0 0 0-1.13 1.3l1.01 14.53c.05.6.7 1.17 1.3 1.13l14.54-1.02a1.3 1.3 0 0 0 1.12-1.3l-1.01-14.53a1.3 1.3 0 0 0-1.3-1.13z"/><path id="p0vbp" d="M760.32 504.63l-5.63 6.48c-.23.26-.46.4-.82.42a1.1 1.1 0 0 1-.88-.3l-3.89-3.38a1.17 1.17 0 0 1-.11-1.7 1.17 1.17 0 0 1 1.7-.12l2.97 2.6 4.85-5.58a1.17 1.17 0 0 1 1.7-.12c.51.45.56 1.18.11 1.7zm1.1-7.02l-14.54 1.02a1.3 1.3 0 0 0-1.13 1.3l1.02 14.53c.04.6.69 1.17 1.3 1.13l14.53-1.02a1.3 1.3 0 0 0 1.13-1.3l-1.02-14.53a1.3 1.3 0 0 0-1.3-1.13z"/><path id="p0vbq" d="M762.34 533.56l-5.63 6.48c-.22.26-.46.4-.82.42a1.1 1.1 0 0 1-.87-.3l-3.9-3.39a1.17 1.17 0 0 1-.11-1.7 1.17 1.17 0 0 1 1.7-.11l2.98 2.6 4.84-5.58a1.17 1.17 0 0 1 1.7-.12c.51.45.57 1.18.11 1.7zm1.1-7.02l-14.54 1.02a1.3 1.3 0 0 0-1.13 1.3l1.02 14.53c.04.6.7 1.17 1.3 1.13l14.53-1.02a1.3 1.3 0 0 0 1.13-1.3l-1.02-14.53a1.3 1.3 0 0 0-1.3-1.13z"/><path id="p0vbr" d="M844.85 397.55c1-.07 2.07.86 2.14 1.85l1.4 19.95c.06 1-.87 2.07-1.86 2.14l-103.75 7.25c-1 .07-2.07-.85-2.14-1.85l-1.4-19.95c-.06-1 .87-2.07 1.86-2.14z"/><path id="p0vbt" d="M909.59 459.58c.48.13.84.74.7 1.23l-2.06 7.72c-.13.49-.74.84-1.23.71l-44.43-11.9a1.08 1.08 0 0 1-.7-1.23l2.06-7.73c.13-.48.74-.83 1.23-.7z"/><path id="p0vbu" d="M875.66 501.22c.48.13.83.74.7 1.22l-2.07 7.73c-.13.48-.74.84-1.22.7l-23.18-6.2a1.08 1.08 0 0 1-.71-1.23l2.07-7.73c.13-.48.74-.83 1.23-.7z"/><path id="p0vbv" d="M841.65 446.55a5 5 0 1 1 9.66 2.6 5 5 0 0 1-9.66-2.6z"/><path id="p0vbw" d="M826.64 502.58a5 5 0 1 1 9.66 2.58 5 5 0 0 1-9.66-2.58z"/><path id="p0vbx" d="M811.62 558.6a5 5 0 1 1 9.66 2.59 5 5 0 0 1-9.66-2.59z"/><path id="p0vby" d="M930.56 481.77c.49.13.84.74.71 1.22l-1.3 4.83c-.12.48-.74.84-1.22.7L859.2 469.9a1.08 1.08 0 0 1-.7-1.22l1.3-4.83c.12-.48.73-.84 1.22-.7z"/><path id="p0vbz" d="M917.88 529.1c.48.13.84.74.7 1.22l-1.29 4.83c-.13.48-.74.84-1.22.7l-69.55-18.63a1.08 1.08 0 0 1-.7-1.22l1.29-4.83c.13-.48.74-.84 1.22-.7z"/><path id="p0vbA" d="M927.98 491.43c.48.12.83.74.7 1.22l-1.3 4.83c-.12.48-.73.84-1.22.7l-69.54-18.63a1.08 1.08 0 0 1-.71-1.22l1.3-4.83c.12-.49.74-.84 1.22-.71z"/><path id="p0vbB" d="M915.3 538.76c.48.13.83.74.7 1.22l-1.3 4.83c-.12.48-.74.84-1.22.7l-69.55-18.63a1.08 1.08 0 0 1-.7-1.22l1.3-4.83c.12-.49.73-.84 1.22-.7z"/><path id="p0vbC" d="M876.19 541.74c.48.13.84.74.7 1.22l-1.29 4.83c-.13.48-.74.84-1.22.7l-33.81-9.05a1.08 1.08 0 0 1-.7-1.23l1.29-4.83c.13-.48.74-.83 1.22-.7z"/><path id="p0vbD" d="M868.42 570.71c.49.13.84.75.71 1.23l-1.3 4.83c-.12.48-.73.83-1.22.7l-33.8-9.05a1.08 1.08 0 0 1-.71-1.23l1.3-4.83c.12-.48.73-.83 1.22-.7z"/><path id="p0vbF" d="M744.57 556.47a5 5 0 1 1 9.66-2.58 5 5 0 0 1-9.66 2.58z"/><path id="p0vbG" d="M758.09 552.85a5 5 0 1 1 9.66-2.59 5 5 0 0 1-9.66 2.6z"/><path id="p0vbH" d="M749.44 485.8c.49-.12 1.1.23 1.23.71l9.83 36.7c.13.49-.22 1.1-.7 1.23l-85.97 23.04c-.49.13-1.1-.23-1.23-.71l-9.83-36.7c-.13-.49.22-1.1.7-1.23z"/><path id="p0vbI" d="M708.38 538.22l16-27.73 11.32 6.54 3.24-5.62 22.03 12.72z"/><path id="p0vbJ" d="M761.35 530.24c.48-.13 1.1.22 1.22.7l1.3 4.83c.13.49-.23 1.1-.71 1.23l-85.97 23.03c-.48.13-1.1-.22-1.22-.7l-1.3-4.83c-.13-.49.23-1.1.71-1.23z"/><path id="p0vbL" d="M798.26 546.98c.5-.04 1.04.42 1.08.91l.09 1c.04.5-.41 1.04-.91 1.08l-23.9 2.1c-.5.04-1.05-.42-1.1-.91l-.08-1c-.04-.5.41-1.04.9-1.08z"/><path id="p0vbM" d="M798.7 551.97c.5-.05 1.03.4 1.08.9l.08 1c.05.5-.4 1.04-.9 1.08l-23.91 2.1c-.5.04-1.04-.42-1.09-.91l-.08-1c-.05-.5.4-1.04.9-1.08z"/><path id="p0vbN" d="M786.18 558.08c.5-.04 1.04.41 1.08.9l.09 1c.04.5-.41 1.04-.91 1.09l-10.96.96c-.5.04-1.04-.41-1.08-.91l-.09-1c-.04-.5.41-1.04.91-1.08z"/><path id="p0vbO" d="M796.34 525.07c.5-.05 1.04.4 1.08.9l1.4 15.95c.04.5-.41 1.04-.91 1.08L774 545.1c-.5.03-1.04-.42-1.08-.92l-1.4-15.94c-.04-.5.41-1.04.91-1.08z"/><path id="p0vbQ" d="M821.66 542.38c.48.13.84.74.7 1.22l-.25.97c-.13.48-.74.84-1.22.7l-23.19-6.2a1.08 1.08 0 0 1-.7-1.23l.25-.97c.13-.48.75-.83 1.23-.7z"/><path id="p0vbR" d="M820.37 547.2c.48.14.83.75.7 1.23l-.25.97c-.13.48-.75.84-1.23.7l-23.18-6.2a1.08 1.08 0 0 1-.7-1.23l.25-.97c.13-.48.74-.83 1.23-.7z"/><path id="p0vbS" d="M819.07 552.04c.49.13.84.74.71 1.22l-.26.97c-.13.48-.74.83-1.22.7l-23.19-6.2a1.08 1.08 0 0 1-.7-1.23l.26-.97c.13-.48.74-.83 1.22-.7z"/><path id="p0vbT" d="M805.22 553.5c.49.13.84.74.71 1.23l-.26.96c-.13.49-.74.84-1.22.71l-10.63-2.85a1.08 1.08 0 0 1-.7-1.22l.25-.97c.13-.48.74-.83 1.23-.7z"/><path id="p0vbU" d="M827.36 521.13c.48.13.83.74.7 1.22l-4.14 15.46c-.13.48-.74.83-1.22.7l-23.19-6.2a1.08 1.08 0 0 1-.7-1.23l4.14-15.46c.13-.48.74-.83 1.22-.7z"/><clipPath id="p0vbg"><use fill="#fff" xlink:href="#p0vba"/></clipPath><clipPath id="p0vbs"><use fill="#fff" xlink:href="#p0vbb"/></clipPath><clipPath id="p0vbE"><use fill="#fff" xlink:href="#p0vbc"/></clipPath><clipPath id="p0vbK"><use fill="#fff" xlink:href="#p0vbd"/></clipPath><clipPath id="p0vbP"><use fill="#fff" xlink:href="#p0vbe"/></clipPath></defs><g><g transform="translate(-620 -311)"><g><g><use fill="#e7e9ea" fill-opacity=".75" xlink:href="#p0vbf"/></g></g><g><g><g><use fill="#a0daea" xlink:href="#p0vba"/><use fill="#fff" fill-opacity="0" stroke="#e7e9ea" stroke-miterlimit="50" stroke-width="4" clip-path="url(&quot;#p0vbg&quot;)" xlink:href="#p0vba"/></g><g><use fill="#fff" xlink:href="#p0vbh"/></g><g><use fill="#fff" xlink:href="#p0vbi"/></g><g><use fill="#fff" xlink:href="#p0vbj"/></g><g><use fill="#fff" xlink:href="#p0vbk"/></g><g><use fill="#fff" xlink:href="#p0vbl"/></g><g><use fill="#fff" xlink:href="#p0vbm"/></g><g><g><use fill="#fff" xlink:href="#p0vbn"/></g></g><g><g><use fill="#fff" xlink:href="#p0vbo"/></g></g><g><g><use fill="#fff" xlink:href="#p0vbp"/></g></g><g><g><use fill="#fff" xlink:href="#p0vbq"/></g></g><g><use fill="#fff" xlink:href="#p0vbr"/></g></g><g><g><use fill="#a0daea" xlink:href="#p0vbb"/><use fill="#fff" fill-opacity="0" stroke="#e7e9ea" stroke-miterlimit="50" stroke-width="4" clip-path="url(&quot;#p0vbs&quot;)" xlink:href="#p0vbb"/></g><g><use fill="#fff" xlink:href="#p0vbt"/></g><g><use fill="#fff" xlink:href="#p0vbu"/></g><g><use fill="#fff" xlink:href="#p0vbv"/></g><g><use fill="#fff" xlink:href="#p0vbw"/></g><g><use fill="#fff" xlink:href="#p0vbx"/></g><g><use fill="#fff" xlink:href="#p0vby"/></g><g><use fill="#fff" xlink:href="#p0vbz"/></g><g><use fill="#fff" xlink:href="#p0vbA"/></g><g><use fill="#fff" xlink:href="#p0vbB"/></g><g><use fill="#fff" xlink:href="#p0vbC"/></g><g><use fill="#fff" xlink:href="#p0vbD"/></g></g><g><g><use fill="#a0daea" xlink:href="#p0vbc"/><use fill="#fff" fill-opacity="0" stroke="#e7e9ea" stroke-miterlimit="50" stroke-width="4" clip-path="url(&quot;#p0vbE&quot;)" xlink:href="#p0vbc"/></g><g><use fill="#fff" xlink:href="#p0vbF"/></g><g><use fill="#fff" xlink:href="#p0vbG"/></g><g><use fill="#fff" xlink:href="#p0vbH"/></g><g><use fill="#a0daea" xlink:href="#p0vbI"/></g><g><use fill="#fff" xlink:href="#p0vbJ"/></g></g><g><g><g><use fill="#a0daea" xlink:href="#p0vbd"/><use fill="#fff" fill-opacity="0" stroke="#e7e9ea" stroke-miterlimit="50" stroke-width="4" clip-path="url(&quot;#p0vbK&quot;)" xlink:href="#p0vbd"/></g><g><use fill="#fff" xlink:href="#p0vbL"/></g><g><use fill="#fff" xlink:href="#p0vbM"/></g><g><use fill="#fff" xlink:href="#p0vbN"/></g><g><use fill="#fff" xlink:href="#p0vbO"/></g></g></g><g><g><g><use fill="#a0daea" xlink:href="#p0vbe"/><use fill="#fff" fill-opacity="0" stroke="#e7e9ea" stroke-miterlimit="50" stroke-width="4" clip-path="url(&quot;#p0vbP&quot;)" xlink:href="#p0vbe"/></g><g><use fill="#fff" xlink:href="#p0vbQ"/></g><g><use fill="#fff" xlink:href="#p0vbR"/></g><g><use fill="#fff" xlink:href="#p0vbS"/></g><g><use fill="#fff" xlink:href="#p0vbT"/></g><g><use fill="#fff" xlink:href="#p0vbU"/></g></g></g></g></g></g></svg>