<?xml version="1.0" encoding="UTF-8" standalone="no"?>
<svg
   xmlns:dc="http://purl.org/dc/elements/1.1/"
   xmlns:cc="http://creativecommons.org/ns#"
   xmlns:rdf="http://www.w3.org/1999/02/22-rdf-syntax-ns#"
   xmlns:svg="http://www.w3.org/2000/svg"
   xmlns="http://www.w3.org/2000/svg"
   viewBox="0 0 74.666664 74.666664"
   height="74.666664"
   width="74.666664"
   xml:space="preserve"
   id="svg2"
   version="1.1"><metadata
     id="metadata8"><rdf:RDF><cc:Work
         rdf:about=""><dc:format>image/svg+xml</dc:format><dc:type
           rdf:resource="http://purl.org/dc/dcmitype/StillImage" /></cc:Work></rdf:RDF></metadata><defs
     id="defs6"><clipPath
       id="clipPath18"
       clipPathUnits="userSpaceOnUse"><path
         style="clip-rule:evenodd"
         id="path16"
         d="M 0,0 H 56 V 56 H 0 Z" /></clipPath></defs><g
     transform="matrix(1.3333333,0,0,1.3333333,0,2.2e-6)"
     id="g10"><g
       id="g12"><g
         clip-path="url(#clipPath18)"
         id="g14"><g
           transform="translate(507,-6890)"
           id="g20"><path
             id="path22"
             style="fill:#ffffff;fill-opacity:1;fill-rule:nonzero;stroke:none"
             d="m -463,6941 h -28.00082 c -0.55048,0 -0.99833,-0.4487 -0.99833,-1 v -21.999 -1 h -1 -4.00012 c -0.55142,0 -1.00006,-0.4488 -1.00006,-1 V 6896 c 0,-0.5513 0.44864,-1 1.00006,-1 h 5.99845 H -463 c 0.55142,0 1.00006,0.4487 1.00006,1 v 44 c 0,0.5513 -0.44864,1 -1.00006,1 z" /><path
             id="path24"
             style="fill:#0da6d0;fill-opacity:1;fill-rule:nonzero;stroke:none"
             d="m -462.99994,6940 -6e-5,-44 h -28.00082 -5.99851 l -0.001,19.9985 c 4.3e-4,0 0.002,0 0.002,0 h 3.99969 2 v 2 l 9.8e-4,21.999 h 27.99817 m 0,2 h -28.00082 c -1.10459,0 -1.99833,-0.8955 -1.99833,-2 v -21.999 h -4.00012 c -1.10458,0 -2.00006,-0.8975 -2.00006,-2 v -20.001 c 0,-1.1045 0.89548,-2 2.00006,-2 h 5.99845 28.00082 c 1.10455,0 2.00006,0.8955 2.00006,2 v 44 c 0,1.1045 -0.89551,2 -2.00006,2 z" /></g><g
           transform="translate(31,36)"
           id="g26"><path
             id="path28"
             style="fill:none;stroke:#0da6d0;stroke-width:1;stroke-linecap:butt;stroke-linejoin:miter;stroke-miterlimit:10;stroke-dasharray:none;stroke-opacity:1"
             d="M 7,0 V 6 C 7,6.5500002 6.5500002,7 6,7 H 0" /></g><g
           transform="rotate(90,19.970337,44.370728)"
           id="g30"><path
             id="path32"
             style="fill:none;stroke:#0da6d0;stroke-width:1;stroke-linecap:butt;stroke-linejoin:miter;stroke-miterlimit:10;stroke-dasharray:none;stroke-opacity:1"
             d="m 16.099609,33.341064 2.5,2.5 2.5,-2.5" /></g><g
           transform="translate(17,12.90625)"
           id="g34"><path
             id="path36"
             style="fill:#0da6d0;fill-opacity:1;fill-rule:nonzero;stroke:none"
             d="m 0.93358612,4.9104209 c 0,0.1151824 0.0606225,0.1758051 0.18186738,0.1758051 h 2.7643852 c 0.1939919,0 0.3334239,0.169743 0.3334239,0.4001083 0,0.2424898 -0.139432,0.4061709 -0.3334239,0.4061709 H 0.81234121 C 0.2788634,5.8864427 0,5.6136417 0,5.0741014 V 0.81234121 C 0,0.2788634 0.2788634,0 0.81234121,0 H 3.7707183 c 0.1879297,0 0.3334239,0.17580518 0.3334239,0.3940461 0,0.22430315 -0.145494,0.40010831 -0.3334239,0.40010831 h -2.661327 c -0.12124494,0 -0.18186739,0.0606225 -0.18186739,0.18186742 V 2.4673347 H 3.4130456 c 0.1879297,0 0.3273614,0.1697431 0.3273614,0.3879836 0,0.2243033 -0.1394317,0.3879838 -0.3273614,0.3879838 H 0.92752403 v 1.6671188 z" /><path
             id="path38"
             style="fill:none;stroke:#0da6d0;stroke-width:1;stroke-linecap:butt;stroke-linejoin:miter;stroke-miterlimit:10;stroke-dasharray:none;stroke-opacity:1"
             d="m 0.93358612,4.9104209 c 0,0.1151824 0.0606225,0.1758051 0.18186738,0.1758051 h 2.7643852 c 0.1939919,0 0.3334239,0.169743 0.3334239,0.4001083 0,0.2424898 -0.139432,0.4061709 -0.3334239,0.4061709 H 0.81234121 C 0.2788634,5.8864427 0,5.6136417 0,5.0741014 V 0.81234121 C 0,0.2788634 0.2788634,0 0.81234121,0 H 3.7707183 c 0.1879297,0 0.3334239,0.17580518 0.3334239,0.3940461 0,0.22430315 -0.145494,0.40010831 -0.3334239,0.40010831 h -2.661327 c -0.12124494,0 -0.18186739,0.0606225 -0.18186739,0.18186742 V 2.4673347 H 3.4130456 c 0.1879297,0 0.3273614,0.1697431 0.3273614,0.3879836 0,0.2243033 -0.1394317,0.3879838 -0.3273614,0.3879838 H 0.92752403 v 1.6671188 z" /></g><g
           transform="translate(13.625244,11.917969)"
           id="g40"><path
             id="path42"
             style="fill:#0da6d0;fill-opacity:1;fill-rule:nonzero;stroke:none"
             d="m 9.4611502,6.6080794 c 0,0.2182408 -0.1879301,0.3697973 -0.442544,0.3697973 -0.2667389,0 -0.4486065,-0.1515565 -0.4486065,-0.3697973 V 2.879797 c 0,-0.2121787 0.1879291,-0.3697972 0.4486065,-0.3697972 0.2546139,0 0.442543,0.1576185 0.442543,0.3697972 V 3.395088 C 9.8127594,2.8373611 10.370487,2.5099998 10.982774,2.5099998 c 0.951773,0 1.497374,0.6183493 1.497374,1.6913671 V 6.608079 c 0,0.2182407 -0.187929,0.3697967 -0.442543,0.3697967 -0.266739,0 -0.448606,-0.151556 -0.448606,-0.3697967 V 4.3468609 c 0,-0.7214074 -0.290988,-1.0730178 -0.872965,-1.0730178 -0.497104,0 -1.012395,0.4364817 -1.2488223,1.0548312 v 2.2794051 h -0.00606 z" /><path
             id="path44"
             style="fill:none;stroke:#0da6d0;stroke-width:1;stroke-linecap:butt;stroke-linejoin:miter;stroke-miterlimit:10;stroke-dasharray:none;stroke-opacity:1"
             d="m 9.4611502,6.6080794 c 0,0.2182408 -0.1879301,0.3697973 -0.442544,0.3697973 -0.2667389,0 -0.4486065,-0.1515565 -0.4486065,-0.3697973 V 2.879797 c 0,-0.2121787 0.1879291,-0.3697972 0.4486065,-0.3697972 0.2546139,0 0.442543,0.1576185 0.442543,0.3697972 V 3.395088 C 9.8127594,2.8373611 10.370487,2.5099998 10.982774,2.5099998 c 0.951773,0 1.497374,0.6183493 1.497374,1.6913671 V 6.608079 c 0,0.2182407 -0.187929,0.3697967 -0.442543,0.3697967 -0.266739,0 -0.448606,-0.151556 -0.448606,-0.3697967 V 4.3468609 c 0,-0.7214074 -0.290988,-1.0730178 -0.872965,-1.0730178 -0.497104,0 -1.012395,0.4364817 -1.2488223,1.0548312 v 2.2794051 h -0.00606 z" /></g><g
           transform="translate(10.593262,12.725098)"
           id="g46"><path
             id="path48"
             style="fill:#0da6d0;fill-opacity:1;fill-rule:nonzero;stroke:none"
             d="m 17.349081,0.82373476 c 0,-0.21217865 0.187929,-0.36373484 0.448605,-0.36373484 0.260677,0 0.460731,0.15155619 0.460731,0.36373484 V 1.78157 h 1.048769 c 0.175806,0 0.303112,0.1515561 0.303112,0.3576724 0,0.1939919 -0.133369,0.3516104 -0.303112,0.3516104 h -1.048769 v 2.3097167 c 0,0.2243028 0.0061,0.3334236 0.03637,0.4122329 0.0485,0.151556 0.181868,0.2424898 0.357674,0.2424898 0.151556,0 0.278862,-0.036374 0.472855,-0.1333699 0.0485,-0.030311 0.109121,-0.042436 0.157619,-0.042436 0.169743,0 0.315237,0.1758055 0.315237,0.3758597 0,0.29705 -0.472856,0.5092287 -1.103329,0.5092287 -0.739593,0 -1.139701,-0.436482 -1.139701,-1.2427611 V 2.4847904 H 16.56705 c -0.169745,0 -0.297051,-0.1515563 -0.297051,-0.3516104 0,-0.2061163 0.121245,-0.3576726 0.297051,-0.3576726 h 0.788092 V 0.82373436 h -0.0061 z" /><path
             id="path50"
             style="fill:none;stroke:#0da6d0;stroke-width:1;stroke-linecap:butt;stroke-linejoin:miter;stroke-miterlimit:10;stroke-dasharray:none;stroke-opacity:1"
             d="m 17.349081,0.82373476 c 0,-0.21217865 0.187929,-0.36373484 0.448605,-0.36373484 0.260677,0 0.460731,0.15155619 0.460731,0.36373484 V 1.78157 h 1.048769 c 0.175806,0 0.303112,0.1515561 0.303112,0.3576724 0,0.1939919 -0.133369,0.3516104 -0.303112,0.3516104 h -1.048769 v 2.3097167 c 0,0.2243028 0.0061,0.3334236 0.03637,0.4122329 0.0485,0.151556 0.181868,0.2424898 0.357674,0.2424898 0.151556,0 0.278862,-0.036374 0.472855,-0.1333699 0.0485,-0.030311 0.109121,-0.042436 0.157619,-0.042436 0.169743,0 0.315237,0.1758055 0.315237,0.3758597 0,0.29705 -0.472856,0.5092287 -1.103329,0.5092287 -0.739593,0 -1.139701,-0.436482 -1.139701,-1.2427611 V 2.4847904 H 16.56705 c -0.169745,0 -0.297051,-0.1515563 -0.297051,-0.3516104 0,-0.2061163 0.121245,-0.3576726 0.297051,-0.3576726 h 0.788092 V 0.82373436 h -0.0061 z" /></g><g
           transform="translate(8.0297852,11.949219)"
           id="g52"><path
             id="path54"
             style="fill:#0da6d0;fill-opacity:1;fill-rule:nonzero;stroke:none"
             d="m 23.707523,4.8548989 c 0.04244,0.8790264 0.533478,1.3640061 1.376129,1.3640061 0.466794,0 0.800217,-0.1333695 1.157891,-0.4607311 0.07275,-0.066685 0.151554,-0.1030578 0.242489,-0.1030578 0.206115,0 0.400108,0.1879296 0.400108,0.3879838 0,0.1333699 -0.06668,0.2424898 -0.218243,0.3697972 -0.40617,0.3576727 -1.006332,0.5577264 -1.648929,0.5577264 -1.357945,0 -2.236969,-0.8790255 -2.236969,-2.2369695 0,-1.3579435 0.885086,-2.3036539 2.152096,-2.3036539 0.588039,0 1.091205,0.2121784 1.461002,0.6062247 0.327362,0.3576727 0.545601,0.8972125 0.545601,1.3518811 0,0.3516102 -0.121243,0.466793 -0.503166,0.466793 z m 2.291531,-0.6486602 c -0.05456,-0.6668472 -0.47892,-1.0851426 -1.115456,-1.0851426 -0.594099,0 -1.05483,0.4304195 -1.163952,1.0851422 h 2.279408 z" /><path
             id="path56"
             style="fill:none;stroke:#0da6d0;stroke-width:1;stroke-linecap:butt;stroke-linejoin:miter;stroke-miterlimit:10;stroke-dasharray:none;stroke-opacity:1"
             d="m 23.707523,4.8548989 c 0.04244,0.8790264 0.533478,1.3640061 1.376129,1.3640061 0.466794,0 0.800217,-0.1333695 1.157891,-0.4607311 0.07275,-0.066685 0.151554,-0.1030578 0.242489,-0.1030578 0.206115,0 0.400108,0.1879296 0.400108,0.3879838 0,0.1333699 -0.06668,0.2424898 -0.218243,0.3697972 -0.40617,0.3576727 -1.006332,0.5577264 -1.648929,0.5577264 -1.357945,0 -2.236969,-0.8790255 -2.236969,-2.2369695 0,-1.3579435 0.885086,-2.3036539 2.152096,-2.3036539 0.588039,0 1.091205,0.2121784 1.461002,0.6062247 0.327362,0.3576727 0.545601,0.8972125 0.545601,1.3518811 0,0.3516102 -0.121243,0.466793 -0.503166,0.466793 z m 2.291531,-0.6486602 c -0.05456,-0.6668472 -0.47892,-1.0851426 -1.115456,-1.0851426 -0.594099,0 -1.05483,0.4304195 -1.163952,1.0851422 h 2.279408 z" /></g><g
           transform="translate(4.5961914,11.9375)"
           id="g58"><path
             id="path60"
             style="fill:#0da6d0;fill-opacity:1;fill-rule:nonzero;stroke:none"
             d="M 32.379028,3.7633834 C 32.627579,2.9328554 33.154991,2.46 33.846092,2.46 c 0.278862,0 0.478916,0.1818674 0.478916,0.4364818 0,0.2970502 -0.157615,0.4425442 -0.478916,0.4425442 -0.721405,0 -1.315506,0.5941004 -1.436752,1.4367523 v 1.8126121 c 0,0.2182407 -0.187931,0.3697967 -0.448608,0.3697967 C 31.693993,6.9581871 31.5,6.8066311 31.5,6.5883904 V 2.8297968 c 0,-0.2121785 0.181868,-0.3637347 0.442545,-0.3637347 0.260679,0 0.448606,0.1515562 0.442545,0.3637347 l -0.03031,0.9335864 h 0.02425 v 2e-7 z" /><path
             id="path62"
             style="fill:none;stroke:#0da6d0;stroke-width:1;stroke-linecap:butt;stroke-linejoin:miter;stroke-miterlimit:10;stroke-dasharray:none;stroke-opacity:1"
             d="M 32.379028,3.7633834 C 32.627579,2.9328554 33.154991,2.46 33.846092,2.46 c 0.278862,0 0.478916,0.1818674 0.478916,0.4364818 0,0.2970502 -0.157615,0.4425442 -0.478916,0.4425442 -0.721405,0 -1.315506,0.5941004 -1.436752,1.4367523 v 1.8126121 c 0,0.2182407 -0.187931,0.3697967 -0.448608,0.3697967 C 31.693993,6.9581871 31.5,6.8066311 31.5,6.5883904 V 2.8297968 c 0,-0.2121785 0.181868,-0.3637347 0.442545,-0.3637347 0.260679,0 0.448606,0.1515562 0.442545,0.3637347 l -0.03031,0.9335864 h 0.02425 v 2e-7 z" /></g></g></g></g></svg>