<?xml version="1.0" encoding="UTF-8" standalone="no"?>
<!-- Created with Inkscape (http://www.inkscape.org/) -->

<svg
   xmlns:dc="http://purl.org/dc/elements/1.1/"
   xmlns:cc="http://creativecommons.org/ns#"
   xmlns:rdf="http://www.w3.org/1999/02/22-rdf-syntax-ns#"
   xmlns:svg="http://www.w3.org/2000/svg"
   xmlns="http://www.w3.org/2000/svg"
   xmlns:sodipodi="http://sodipodi.sourceforge.net/DTD/sodipodi-0.dtd"
   xmlns:inkscape="http://www.inkscape.org/namespaces/inkscape"
   version="1.1"
   id="svg2"
   xml:space="preserve"
   width="74.666664"
   height="74.666664"
   viewBox="0 0 74.666664 74.666664"
   sodipodi:docname="Img_Shortcut_2.svg"
   inkscape:version="0.92.3 (unknown)"><metadata
     id="metadata8"><rdf:RDF><cc:Work
         rdf:about=""><dc:format>image/svg+xml</dc:format><dc:type
           rdf:resource="http://purl.org/dc/dcmitype/StillImage" /><dc:title></dc:title></cc:Work></rdf:RDF></metadata><defs
     id="defs6"><clipPath
       clipPathUnits="userSpaceOnUse"
       id="clipPath18"><path
         d="M 0,0 H 56 V 56 H 0 Z"
         id="path16"
         inkscape:connector-curvature="0"
         style="clip-rule:evenodd" /></clipPath></defs><sodipodi:namedview
     pagecolor="#ffffff"
     bordercolor="#666666"
     borderopacity="1"
     objecttolerance="10"
     gridtolerance="10"
     guidetolerance="10"
     inkscape:pageopacity="0"
     inkscape:pageshadow="2"
     inkscape:window-width="1855"
     inkscape:window-height="1056"
     id="namedview4"
     showgrid="false"
     inkscape:zoom="3.1607144"
     inkscape:cx="0.15819209"
     inkscape:cy="37.333332"
     inkscape:window-x="65"
     inkscape:window-y="24"
     inkscape:window-maximized="1"
     inkscape:current-layer="g10" /><g
     id="g10"
     inkscape:groupmode="layer"
     inkscape:label="Img_Shortcut_2"
     transform="matrix(1.3333333,0,0,1.3333333,0,2.2e-6)"><g
       id="g12"><g
         id="g14"
         clip-path="url(#clipPath18)"><g
           id="g20"
           transform="translate(18,4)"><path
             d="M 1,18 V 2 C 1,1.3333332 1.3333332,1 2,1 h 16 c 0.666666,0 1,0.3333332 1,1 v 16 c 0,0.666666 -0.333334,1 -1,1 H 2 C 1.3333332,19 1,18.666666 1,18 Z"
             style="fill:#ffffff;fill-opacity:1;fill-rule:nonzero;stroke:none"
             id="path22"
             inkscape:connector-curvature="0" /><path
             d="M 1,18 V 2 C 1,1.3333332 1.3333332,1 2,1 h 16 c 0.666666,0 1,0.3333332 1,1 v 16 c 0,0.666666 -0.333334,1 -1,1 H 2 C 1.3333332,19 1,18.666666 1,18 Z"
             style="fill:none;stroke:#0da6d0;stroke-width:1;stroke-linecap:butt;stroke-linejoin:miter;stroke-miterlimit:10;stroke-dasharray:none;stroke-opacity:1"
             id="path24"
             inkscape:connector-curvature="0" /></g><g
           id="g26"
           transform="rotate(90,11.75,23.25)"><path
             d="M 6,7 H 0"
             style="fill:none;stroke:#0da6d0;stroke-width:1;stroke-linecap:butt;stroke-linejoin:miter;stroke-miterlimit:10;stroke-dasharray:none;stroke-opacity:1"
             id="path28"
             inkscape:connector-curvature="0" /></g><g
           id="g30"
           transform="rotate(180,23.299804,22.92041)"><path
             d="m 16.099609,33.341064 2.5,2.5 2.5,-2.5"
             style="fill:none;stroke:#0da6d0;stroke-width:1;stroke-linecap:butt;stroke-linejoin:miter;stroke-miterlimit:10;stroke-dasharray:none;stroke-opacity:1"
             id="path32"
             inkscape:connector-curvature="0" /></g><g
           id="g34"
           transform="translate(18,32)"><path
             d="M 1,18 V 2 C 1,1.3333332 1.3333332,1 2,1 h 16 c 0.666666,0 1,0.3333332 1,1 v 16 c 0,0.666666 -0.333334,1 -1,1 H 2 C 1.3333332,19 1,18.666666 1,18 Z"
             style="fill:#ffffff;fill-opacity:1;fill-rule:nonzero;stroke:none"
             id="path36"
             inkscape:connector-curvature="0" /><path
             d="M 1,18 V 2 C 1,1.3333332 1.3333332,1 2,1 h 16 c 0.666666,0 1,0.3333332 1,1 v 16 c 0,0.666666 -0.333334,1 -1,1 H 2 C 1.3333332,19 1,18.666666 1,18 Z"
             style="fill:none;stroke:#0da6d0;stroke-width:1;stroke-linecap:butt;stroke-linejoin:miter;stroke-miterlimit:10;stroke-dasharray:none;stroke-opacity:1"
             id="path38"
             inkscape:connector-curvature="0" /></g><g
           id="g40"
           transform="rotate(-90,32.5,11.5)"><path
             d="M 6,7 H 0"
             style="fill:none;stroke:#0da6d0;stroke-width:1;stroke-linecap:butt;stroke-linejoin:miter;stroke-miterlimit:10;stroke-dasharray:none;stroke-opacity:1"
             id="path42"
             inkscape:connector-curvature="0" /></g><g
           id="g44"
           transform="translate(9.4003906,9.6591797)"><path
             d="m 16.099609,33.341064 2.5,2.5 2.5,-2.5"
             style="fill:none;stroke:#0da6d0;stroke-width:1;stroke-linecap:butt;stroke-linejoin:miter;stroke-miterlimit:10;stroke-dasharray:none;stroke-opacity:1"
             id="path46"
             inkscape:connector-curvature="0" /></g></g></g></g></svg>
