<svg xmlns="http://www.w3.org/2000/svg" viewBox="0 0 96 13.091">
  <defs>
    <style>
      .cls-1 {
        fill: #fff;
      }
    </style>
  </defs>
  <path id="Data_overview" data-name="Data overview" class="cls-1" d="M15.291-48.946a4.517,4.517,0,0,0,.1-.854c0-1.847-1.53-2.761-4.47-2.761h-5.9L2.24-39.47H8.16c3.337,0,5.3-1.212,5.86-3.6ZM10.5-43.085c-.258,1.212-.755,1.808-2.344,1.808H6.134L8.16-50.733h2.086c1.192,0,1.609.338,1.609,1.053a3.412,3.412,0,0,1-.1.715Zm16.287-9.476H18.368L15.587-39.47h8.4l.358-1.808H19.56c.278-1.351.576-2.682.854-4.052h3.814l.377-1.808H20.811l.775-3.635h4.827Zm10.307,0H28.675L25.894-39.47h8.4l.358-1.808H29.867c.278-1.351.576-2.682.854-4.052h3.814l.377-1.808H31.119l.775-3.635h4.827Zm11.936,3.6a4.517,4.517,0,0,0,.1-.854c0-1.847-1.53-2.761-4.47-2.741H38.983L36.2-39.47h3.536l.954-4.47h2.066c3.6,0,5.4-.934,5.959-3.6ZM45.24-47.575a1.992,1.992,0,0,1-2.284,1.808H41.069l1.073-4.986h1.927c1.172,0,1.569.358,1.569,1.073a3.108,3.108,0,0,1-.079.7ZM61.8-49.045a4.322,4.322,0,0,0,.1-.834c0-1.907-1.708-2.682-4.509-2.682h-5.9L48.664-39.47H52.28l.119-.636,2.265-10.628h1.51c1.47,0,1.887.4,1.887,1.053a3.244,3.244,0,0,1-.1.7l-.2.854c-.2,1.033-.675,1.47-3.278,1.47l-.238,1.212,1.967,5.979h4.41c-.834-1.768-1.927-4.072-2.642-5.662,2.066-.06,3.2-.973,3.655-3.2Zm11.261-3.516H64.633L61.852-39.47h8.4l.358-1.808H65.825c.278-1.351.576-2.682.854-4.052h3.814l.377-1.808H67.077l.775-3.635h4.827ZM83.681-39.47l-.914-13.091H77.3L70.849-39.47h2.98l1.212-2.88v.02h4.569l-.04,2.861Zm-3.993-11.4c0,2.245-.04,4.489-.04,6.734H75.815l2.841-6.734Zm18.452,1.927a4.518,4.518,0,0,0,.1-.854c0-1.847-1.53-2.761-4.47-2.761h-5.9L85.089-39.47h5.92c3.337,0,5.3-1.212,5.86-3.6Zm-4.787,5.86c-.258,1.212-.755,1.808-2.344,1.808H88.983l2.026-9.456h2.086c1.192,0,1.609.338,1.609,1.053a3.411,3.411,0,0,1-.1.715Z" transform="translate(-2.24 52.561)"/>
</svg>
