<svg xmlns="http://www.w3.org/2000/svg" viewBox="0 0 56 56"><defs><style>.a,.b{fill:#fff;}.a,.c,.e{stroke-linejoin:round;}.c{fill:rgba(0,0,0,0);stroke:#ced3d6;}.c,.e{stroke-miterlimit:10;}.c,.d,.e{stroke-width:2px;}.d,.e{fill:none;stroke:#0da6d0;stroke-linecap:round;}.f{fill:#0da6d0;opacity:0;}.g,.h{stroke:none;}.h{fill:#ced3d6;}</style></defs><g class="a" transform="translate(6 0.5)"><path class="g" d="M 35.00009918212891 27.99980163574219 L 9 27.99980163574219 C 4.588789463043213 27.99980163574219 0.9999995827674866 24.4110107421875 0.9999995827674866 19.99980163574219 C 0.9999995827674866 18.37209129333496 1.485549569129944 16.80606079101562 2.404159545898438 15.4710111618042 C 3.302259683609009 14.16576099395752 4.550589561462402 13.16444110870361 6.014179706573486 12.57528114318848 L 6.508719444274902 12.37621116638184 L 6.619089603424072 11.854660987854 C 6.875909805297852 10.64108085632324 7.54940938949585 9.536460876464844 8.515529632568359 8.744271278381348 C 9.494239807128906 7.941761016845703 10.73160934448242 7.499800682067871 11.99969959259033 7.499800682067871 C 12.62447929382324 7.499800682067871 13.23699951171875 7.603480815887451 13.8202600479126 7.807971000671387 L 14.66913986206055 8.1055908203125 L 15.0546293258667 7.292830944061279 C 15.93454933166504 5.437620639801025 17.3138599395752 3.866960763931274 19.04345893859863 2.750650882720947 C 20.81794929504395 1.605360865592957 22.87775039672852 1.000000834465027 25.00020027160645 1.000000834465027 C 27.81341934204102 1.000000834465027 30.49026870727539 2.061320781707764 32.53765869140625 3.988440752029419 C 34.57619857788086 5.907260894775391 35.79758071899414 8.497250556945801 35.97681045532227 11.28133106231689 L 36.02494812011719 12.02923107147217 L 36.75629806518555 12.1929407119751 C 38.50061798095703 12.58340072631836 40.08528137207031 13.56824111938477 41.21839141845703 14.96605110168457 C 42.38399124145508 16.40396118164062 43.00009918212891 18.14459991455078 43.00009918212891 19.99980163574219 C 43.00009918212891 24.4110107421875 39.41130828857422 27.99980163574219 35.00009918212891 27.99980163574219 Z"/><path class="h" d="M 35.00009918212891 26.99980163574219 C 38.85990905761719 26.99980163574219 42.00009918212891 23.85961151123047 42.00009918212891 19.99980163574219 C 42.00009918212891 18.37645149230957 41.4611701965332 16.85356140136719 40.44155883789062 15.59576034545898 C 39.44968795776367 14.37217044830322 38.06332015991211 13.51026058197021 36.53786087036133 13.16879081726074 C 35.67094802856445 12.97474098205566 35.03593826293945 12.23210048675537 34.9788703918457 11.34557056427002 C 34.81599044799805 8.815310478210449 33.70560073852539 6.461101055145264 31.85225868225098 4.716610908508301 C 29.99110984802246 2.964780807495117 27.55765914916992 2.000000715255737 25.00020027160645 2.000000715255737 C 23.0705394744873 2.000000715255737 21.19824981689453 2.550110816955566 19.58573913574219 3.590850830078125 C 18.01264953613281 4.60615062713623 16.75824928283691 6.03446102142334 15.95815944671631 7.721360683441162 C 15.61887454986572 8.436702728271484 14.90418243408203 8.864645004272461 14.15085983276367 8.864645004272461 C 13.93088054656982 8.864645004272461 13.7075719833374 8.828143119812012 13.48939990997314 8.751650810241699 C 13.01273918151855 8.584540367126465 12.51152992248535 8.499800682067871 11.99969959259033 8.499800682067871 C 9.88560962677002 8.499800682067871 8.034189224243164 9.997791290283203 7.597429752349854 12.06169128417969 C 7.459459781646729 12.71367073059082 7.005809783935547 13.25409126281738 6.387599468231201 13.5029411315918 C 5.106899738311768 14.01848125457764 4.01431941986084 14.8950309753418 3.22797966003418 16.03786087036133 C 2.424629688262939 17.20540046691895 1.999999642372131 18.57542037963867 1.999999642372131 19.99980163574219 C 1.999999642372131 23.85961151123047 5.140189647674561 26.99980163574219 9 26.99980163574219 L 35.00009918212891 26.99980163574219 M 35.00009918212891 28.99980163574219 L 9 28.99980163574219 C 4.029299736022949 28.99980163574219 -4.089355343239731e-07 24.97050094604492 -4.089355343239731e-07 19.99980163574219 C -4.089355343239731e-07 16.21656036376953 2.333979606628418 12.97873115539551 5.640759468078613 11.64762115478516 C 6.263049602508545 8.70703125 8.874049186706543 6.499800682067871 11.99969959259033 6.499800682067871 C 12.75369930267334 6.499800682067871 13.4777193069458 6.628201007843018 14.15110969543457 6.864290714263916 C 16.07572937011719 2.806430816650391 20.21031951904297 8.178710686479462e-07 25.00020027160645 8.178710686479462e-07 C 31.36487007141113 8.178710686479462e-07 36.57162857055664 4.95504093170166 36.97473907470703 11.21709060668945 C 40.99551773071289 12.11712074279785 44.00009918212891 15.70747089385986 44.00009918212891 19.99980163574219 C 44.00009918212891 24.97050094604492 39.97079849243164 28.99980163574219 35.00009918212891 28.99980163574219 Z"/></g><g transform="translate(39.107 -11.412) rotate(45)"><path class="b" d="M1,1H13.5L20,7.4V24H1Z" transform="translate(18 31)"/><g transform="translate(18 31)"><path class="c" d="M1,1H13.5L20,7.4V24H1Z"/><path class="c" d="M13,1V8h7"/></g></g><path class="d" d="M0,7V-11" transform="translate(28 24.3) rotate(180)"/><path class="e" d="M16,32.3l6,6,5.5-5.5" transform="translate(50 54.8) rotate(180)"/><rect class="f" width="56" height="56"/></svg>