<svg xmlns="http://www.w3.org/2000/svg" viewBox="0 0 56 56"><defs><style>.a{fill:#fff;}.b,.h,.j{fill:none;}.b,.c{stroke:#ced3d6;stroke-linejoin:round;stroke-miterlimit:10;stroke-width:2px;}.c{fill:rgba(0,0,0,0);}.d,.f,.g{fill:#0da6d0;}.d{opacity:0;}.e{fill:#cdd3d6;}.f{opacity:0.2;}.g,.h{stroke:#0da6d0;}.i{stroke:none;}</style></defs><g transform="translate(11564 -5793)"><path class="a" d="M1,1H24.7L43,17.6V53H1Z" transform="translate(-11558 5794)"/><g transform="translate(4384 -3749)"><g transform="translate(-16129 9286)"><path class="b" d="M1,1H24.7L43,17.6V53H1Z" transform="translate(187 257)"/><path class="c" d="M40,14.3H22V-3" transform="translate(190 261)"/></g><g transform="translate(-16129 9286)"><rect class="d" width="56" height="56" transform="translate(181 256)"/><g transform="translate(188 260)"><path class="e" d="M19,11a.939.939,0,0,1-.864,1H6.864A.887.887,0,0,1,6,11V10a.887.887,0,0,1,.864-1H18.136A.939.939,0,0,1,19,10Z"/></g><g transform="translate(188 267)"><path class="e" d="M19,11a.939.939,0,0,1-.864,1H6.864A.887.887,0,0,1,6,11V10a.887.887,0,0,1,.864-1H18.136A.939.939,0,0,1,19,10Z"/></g><g transform="translate(188 262)"><path class="e" d="M6,22a1,1,0,0,1,1-1H35a1,1,0,0,1,1,1v1a1.075,1.075,0,0,1-1,1H7a1.075,1.075,0,0,1-1-1Z"/></g><g transform="translate(188 269)"><path class="e" d="M6,22a1,1,0,0,1,1-1H35a1,1,0,0,1,1,1v1a1.075,1.075,0,0,1-1,1H7a1.075,1.075,0,0,1-1-1Z"/></g><g transform="translate(188 276)"><path class="e" d="M6,22a1,1,0,0,1,1-1H35a1,1,0,0,1,1,1v1a1.075,1.075,0,0,1-1,1H7a1.075,1.075,0,0,1-1-1Z"/></g><rect class="f" width="19" height="16" transform="translate(191 266)"/><g class="g" transform="translate(189.5 264.5)"><circle class="i" cx="1.5" cy="1.5" r="1.5"/><circle class="j" cx="1.5" cy="1.5" r="2"/></g><g class="g" transform="translate(189.5 280.5)"><circle class="i" cx="1.5" cy="1.5" r="1.5"/><circle class="j" cx="1.5" cy="1.5" r="2"/></g><g class="g" transform="translate(208.5 264.5)"><circle class="i" cx="1.5" cy="1.5" r="1.5"/><circle class="j" cx="1.5" cy="1.5" r="2"/></g><g class="g" transform="translate(208.5 280.5)"><circle class="i" cx="1.5" cy="1.5" r="1.5"/><circle class="j" cx="1.5" cy="1.5" r="2"/></g><g class="h" transform="translate(191 266)"><rect class="i" width="19" height="16"/><rect class="j" x="0.5" y="0.5" width="18" height="15"/></g></g></g></g></svg>