<svg xmlns="http://www.w3.org/2000/svg" xmlns:xlink="http://www.w3.org/1999/xlink" width="16" height="20" viewBox="0 0 16 20"><defs><path id="facub" d="M58 344a2 2 0 0 0-2 2v16c0 1.1.9 2 2 2h12a2 2 0 0 0 2-2v-11l-7-7z"/><path id="facua" d="M72 351h-7v-7z"/><path id="facud" d="M65 333c0-1.1.9-2 2-2h12a2 2 0 0 1 2 2v16a2 2 0 0 1-2 2H67a2 2 0 0 1-2-2z"/><path id="facue" d="M60 356v-2h8v2z"/><path id="facuf" d="M60 360v-2h8v2z"/><clipPath id="facuc"><use xlink:href="#facua"/></clipPath></defs><g><g transform="translate(-56 -344)"><g><g><use fill="#14a79a" xlink:href="#facub"/></g></g><g><g><g><use fill="#9cdbd5" xlink:href="#facua"/></g><g clip-path="url(#facuc)"><use fill="#9cdbd5" xlink:href="#facud"/></g></g></g><g><use fill="#9cdbd5" xlink:href="#facue"/></g><g><use fill="#9cdbd5" xlink:href="#facuf"/></g></g></g></svg>