<svg xmlns="http://www.w3.org/2000/svg" xmlns:xlink="http://www.w3.org/1999/xlink" width="20" height="16" viewBox="0 0 20 16"><defs><path id="ki2ya" d="M348 486h-6a2 2 0 0 0-1.99 2l-.01 12c0 1.1.9 2 2 2h16a2 2 0 0 0 2-2v-10a2 2 0 0 0-2-2h-8z"/><path id="ki2yb" d="M340 490c0-1 1-2 2-2h16c1 0 2 1 2 2v10c0 1-1 2-2 2h-16c-1 0-2-1-2-2z"/></defs><g><g transform="translate(-340 -486)"><use fill="#a0daea" xlink:href="#ki2ya"/></g><g transform="translate(-340 -486)"><use fill="#0da6d0" xlink:href="#ki2yb"/></g></g></svg>